<mxfile host="app.diagrams.net" modified="2024-03-29T14:10:43.088Z" agent="Mozilla/5.0 (Macintosh; Intel Mac OS X 10_15_7) AppleWebKit/605.1.15 (KHTML, like Gecko) Version/17.2 Safari/605.1.15" version="24.2.1" etag="StA_8c3ZEiMWhYHfdbcW" type="github">
  <diagram name="第 1 页" id="YL7l5Fi3NWudZoymdxUa">
    <mxGraphModel>
      <root>
        <mxCell id="0" />
        <mxCell id="1" parent="0" />
      </root>
    </mxGraphModel>
  </diagram>
</mxfile>
